<?xml version="1.0" encoding="UTF-8" standalone="no"?>
<!DOCTYPE svg PUBLIC "-//W3C//DTD SVG 1.1//EN" "http://www.w3.org/Graphics/SVG/1.1/DTD/svg11.dtd">
<svg width="100%" height="100%" viewBox="0 0 404 728" version="1.1" xmlns="http://www.w3.org/2000/svg" xmlns:xlink="http://www.w3.org/1999/xlink" xml:space="preserve" xmlns:serif="http://www.serif.com/" style="fill-rule:evenodd;clip-rule:evenodd;stroke-linecap:round;stroke-linejoin:round;stroke-miterlimit:1.5;">
    <g>
        <g id="Bot-2">
            <path id="Neck" d="M219.85,258.245C219.85,258.245 224.966,277.733 216.928,302.51" style="fill:none;stroke:#000;stroke-width:14px;"/>
            <path id="Body" d="M106.281,308.864C123.687,300.838 180.126,302.51 213.858,302.51C231.096,302.51 330.017,302.321 340.38,312.688C348.053,320.365 331.504,381.294 328.48,390.546C322.127,409.982 308.088,466.256 301.779,485.609C297.01,500.234 291.842,522.496 282.233,531.391C271.099,541.698 239.117,538.859 225.162,538.859C170.927,538.859 167.571,536.671 147.383,486.398C134.468,454.238 121.662,423.958 113.394,390.884C108.121,369.792 95.242,313.954 106.281,308.864Z" style="fill:none;stroke:#000;stroke-width:14px;"/>
            <g id="Arm_left">
                <path d="M105.108,352.531C33.337,361.408 -16.809,340.713 18.835,272.094" style="fill:none;stroke:#000;stroke-width:14px;"/>
            </g>
            <g id="Arm_right">
                <path d="M339.453,345.899C388.734,360.687 405.544,394.364 392.639,445.326" style="fill:none;stroke:#000;stroke-width:14px;"/>
            </g>
            <g id="Head">
                <path d="M121.994,68.4C101.94,81.474 86.069,215.28 96.908,235.147C104.681,249.394 183.618,255.898 226.61,258.697C269.329,261.478 339.589,266.666 354.861,251.942C367.046,240.194 370.715,146.826 360.225,117.985C352.794,97.553 141.235,55.857 121.994,68.4Z" style="fill:none;stroke:#000;stroke-width:14px;"/>
                <path id="Eye_left" d="M139.018,141.438C139.018,141.438 153.032,134.41 159.95,119.133C164.057,133.887 176.818,149.837 176.818,149.837" style="fill:none;stroke:#000;stroke-width:14px;"/>
                <path id="Eye_right" d="M248.181,169.469C248.181,169.469 268.205,160.528 272.411,143.751C275.14,159.491 294.894,180.172 294.894,180.172" style="fill:none;stroke:#000;stroke-width:14px;"/>
                <path id="Mouth" d="M184.278,190.391L199.841,215.106L223.883,198.529" style="fill:none;stroke:#000;stroke-width:14px;"/>
                <path d="M119.909,69.541C123.574,66.668 114.407,27.881 103.252,21.039" style="fill:none;stroke:#000;stroke-width:14px;"/>
                <circle cx="103.252" cy="21.039" r="17.127"/>
                <circle cx="376.944" cy="74.382" r="17.127"/>
                <path d="M354.751,111.887C359.645,91.141 365.951,88.364 376.944,74.382" style="fill:none;stroke:#000;stroke-width:14px;"/>
            </g>
        </g>
        <ellipse cx="229.885" cy="656.206" rx="80.873" ry="22.594"/>
    </g>
</svg>
